#define next_width 30
#define next_height 22
static unsigned char next_bits[] = {
   0x00, 0x00, 0x00, 0x00, 0x00, 0x00, 0x00, 0x00, 0x00, 0x00, 0x00, 0x00,
   0x00, 0x00, 0x00, 0x00, 0x00, 0x00, 0x00, 0x00, 0x00, 0x00, 0x00, 0x00,
   0x00, 0x41, 0x00, 0x00, 0x00, 0xc3, 0x30, 0x00, 0x00, 0xc7, 0x31, 0x00,
   0x00, 0xcf, 0x33, 0x00, 0x00, 0xdf, 0x37, 0x00, 0x00, 0xdf, 0x37, 0x00,
   0x00, 0xcf, 0x33, 0x00, 0x00, 0xc7, 0x31, 0x00, 0x00, 0xc3, 0x30, 0x00,
   0x00, 0x41, 0x00, 0x00, 0x00, 0x00, 0x00, 0x00, 0x00, 0x00, 0x00, 0x00,
   0x00, 0x00, 0x00, 0x00, 0x00, 0x00, 0x00, 0x00, 0x00, 0x00, 0x00, 0x00,
   0x00, 0x00, 0x00, 0x00};
