#define pause_width 30
#define pause_height 22
static unsigned char pause_bits[] = {
   0x00, 0x00, 0x00, 0x00, 0x00, 0x00, 0x00, 0x00, 0x00, 0x00, 0x00, 0x00,
   0x00, 0x00, 0x00, 0x00, 0x00, 0x00, 0x00, 0x00, 0x00, 0x00, 0x00, 0x00,
   0x00, 0x1c, 0x07, 0x00, 0x00, 0x1c, 0x07, 0x00, 0x00, 0x1c, 0x07, 0x00,
   0x00, 0x1c, 0x07, 0x00, 0x00, 0x1c, 0x07, 0x00, 0x00, 0x1c, 0x07, 0x00,
   0x00, 0x1c, 0x07, 0x00, 0x00, 0x1c, 0x07, 0x00, 0x00, 0x1c, 0x07, 0x00,
   0x00, 0x1c, 0x07, 0x00, 0x00, 0x00, 0x00, 0x00, 0x00, 0x00, 0x00, 0x00,
   0x00, 0x00, 0x00, 0x00, 0x00, 0x00, 0x00, 0x00, 0x00, 0x00, 0x00, 0x00,
   0x00, 0x00, 0x00, 0x00};
