#define stop_width 30
#define stop_height 22
static unsigned char stop_bits[] = {
   0x00, 0x00, 0x00, 0x00, 0x00, 0x00, 0x00, 0x00, 0x00, 0x00, 0x00, 0x00,
   0x00, 0x00, 0x00, 0x00, 0x00, 0x00, 0x00, 0x00, 0x00, 0x00, 0x00, 0x00,
   0x00, 0x00, 0x00, 0x00, 0x00, 0xf8, 0x07, 0x00, 0x00, 0xf8, 0x07, 0x00,
   0x00, 0xf8, 0x07, 0x00, 0x00, 0xf8, 0x07, 0x00, 0x00, 0xf8, 0x07, 0x00,
   0x00, 0xf8, 0x07, 0x00, 0x00, 0xf8, 0x07, 0x00, 0x00, 0xf8, 0x07, 0x00,
   0x00, 0x00, 0x00, 0x00, 0x00, 0x00, 0x00, 0x00, 0x00, 0x00, 0x00, 0x00,
   0x00, 0x00, 0x00, 0x00, 0x00, 0x00, 0x00, 0x00, 0x00, 0x00, 0x00, 0x00,
   0x00, 0x00, 0x00, 0x00};
