#define prev_width 49
#define prev_height 28
static char prev_bits[] = {
 0x00,0x00,0x00,0x00,0x00,0x00,0x00,0x00,0x60,0x00,0x02,0x00,0x00,0x00,0x00,
 0x60,0x80,0x61,0x00,0x00,0x00,0x00,0x60,0x60,0x78,0x00,0x00,0x00,0x00,0x60,
 0x18,0x7e,0x00,0x00,0x00,0x00,0x60,0x86,0x7f,0x00,0x00,0x00,0x00,0x60,0xe1,
 0x7f,0x00,0x00,0x00,0x00,0x60,0x86,0x7f,0x00,0x00,0x00,0x00,0x60,0x18,0x7e,
 0x00,0x00,0x00,0x00,0x60,0x60,0x78,0x00,0x00,0x00,0x00,0x60,0x80,0x61,0x00,
 0x00,0x00,0x00,0x60,0x00,0x02,0x00,0x00,0x00,0x00,0x00,0x00,0x00,0x00,0x00,
 0x00,0x00,0x00,0x00,0x00,0x00,0x00,0x00,0x00,0x00,0x00,0x00,0x00,0x00,0x00,
 0x00,0x0f,0x00,0x00,0x00,0x00,0x00,0x00,0x11,0x00,0x00,0x00,0x00,0x00,0x00,
 0x11,0x00,0x00,0x00,0x00,0x00,0x00,0x11,0x00,0x00,0x00,0x00,0x00,0x00,0x0f,
 0x60,0x44,0x00,0x00,0x00,0x00,0x41,0x93,0x44,0x00,0x00,0x00,0x00,0xc1,0x88,
 0x28,0x00,0x00,0x00,0x00,0x41,0x78,0x28,0x00,0x00,0x00,0x00,0x41,0x08,0x10,
 0x00,0x00,0x00,0x00,0x41,0xf0,0x10,0x00,0x00,0x00,0x00,0x00,0x00,0x00,0x00,
 0x00,0x00,0x00,0x00,0x00,0x00,0x00,0x00,0x00,0x00,0x00,0x00,0x00,0x00,0x00,
 0x00};
