#define back_width 49
#define back_height 28
static char back_bits[] = {
 0x00,0x00,0x00,0x00,0x00,0x00,0x00,0x00,0x00,0x00,0x02,0x00,0x00,0x00,0x00,
 0x00,0x80,0x61,0x00,0x00,0x00,0x00,0x00,0x60,0x78,0x00,0x00,0x00,0x00,0x00,
 0x18,0x7e,0x00,0x00,0x00,0x00,0x00,0x86,0x7f,0x00,0x00,0x00,0x00,0x00,0xe1,
 0x7f,0x00,0x00,0x00,0x00,0x00,0x86,0x7f,0x00,0x00,0x00,0x00,0x00,0x18,0x7e,
 0x00,0x00,0x00,0x00,0x00,0x60,0x78,0x00,0x00,0x00,0x00,0x00,0x80,0x61,0x00,
 0x00,0x00,0x00,0x00,0x00,0x02,0x00,0x00,0x00,0x00,0x00,0x00,0x00,0x00,0x00,
 0x00,0x00,0x00,0x00,0x00,0x80,0x00,0x00,0x00,0x00,0x00,0x00,0x80,0x00,0x00,
 0x00,0x1f,0x00,0x00,0x80,0x00,0x00,0x00,0x31,0x00,0x00,0x80,0x00,0x00,0x00,
 0x31,0x00,0x00,0x80,0x00,0x00,0x00,0x31,0x00,0x00,0x80,0x00,0x00,0x00,0x3f,
 0x00,0x00,0xf0,0x00,0x00,0x00,0x31,0x02,0xea,0x99,0x00,0x00,0x00,0x61,0x22,
 0x32,0x88,0x00,0x00,0x00,0x61,0x76,0x13,0x88,0x00,0x00,0x00,0x61,0xdc,0x11,
 0x88,0x01,0x00,0x00,0x3f,0x8c,0x11,0x70,0x07,0x00,0x00,0x00,0x00,0x00,0x00,
 0x00,0x00,0x00,0x00,0x00,0x00,0x00,0x00,0x00,0x00,0x00,0x00,0x00,0x00,0x00,
 0x00};
