#define fwd_width 49
#define fwd_height 28
static char fwd_bits[] = {
 0x00,0x00,0x00,0x00,0x00,0x00,0x00,0x00,0x00,0x80,0x00,0x00,0x00,0x00,0x00,
 0x00,0x0c,0x03,0x00,0x00,0x00,0x00,0x00,0x3c,0x0c,0x00,0x00,0x00,0x00,0x00,
 0xfc,0x30,0x00,0x00,0x00,0x00,0x00,0xfc,0xc3,0x00,0x00,0x00,0x00,0x00,0xfc,
 0x0f,0x01,0x00,0x00,0x00,0x00,0xfc,0xc3,0x00,0x00,0x00,0x00,0x00,0xfc,0x30,
 0x00,0x00,0x00,0x00,0x00,0x3c,0x0c,0x00,0x00,0x00,0x00,0x00,0x0c,0x03,0x00,
 0x00,0x00,0x00,0x00,0x80,0x00,0x00,0x00,0x00,0x00,0x00,0x00,0x00,0x00,0x00,
 0x00,0x00,0x00,0x00,0x00,0x00,0x00,0x00,0x00,0x00,0x00,0x00,0x00,0x00,0x00,
 0x00,0x7e,0x38,0x00,0x00,0x00,0x00,0x00,0x06,0x0c,0x00,0x00,0x00,0x00,0x00,
 0x06,0x0c,0x00,0x00,0x00,0x00,0x00,0x06,0x0c,0x00,0x00,0x00,0x00,0x00,0x06,
 0x0c,0x00,0xf0,0x00,0x00,0x00,0x7e,0x1c,0x03,0x13,0x01,0x00,0x00,0x06,0x0c,
 0x32,0x11,0x01,0x00,0x00,0x06,0x0c,0x3a,0x11,0x01,0x00,0x00,0x06,0x0c,0xee,
 0x11,0x01,0x00,0x00,0x06,0x0c,0xc4,0xf0,0x00,0x00,0x00,0x00,0x00,0x00,0x00,
 0x00,0x00,0x00,0x00,0x00,0x00,0x00,0x00,0x00,0x00,0x00,0x00,0x00,0x00,0x00,
 0x00};
