#define next_width 49
#define next_height 28
static char next_bits[] = {
 0x00,0x00,0x00,0x00,0x00,0x00,0x00,0x00,0x00,0x80,0x00,0x0c,0x00,0x00,0x00,
 0x00,0x0c,0x03,0x0c,0x00,0x00,0x00,0x00,0x3c,0x0c,0x0c,0x00,0x00,0x00,0x00,
 0xfc,0x30,0x0c,0x00,0x00,0x00,0x00,0xfc,0xc3,0x0c,0x00,0x00,0x00,0x00,0xfc,
 0x0f,0x0d,0x00,0x00,0x00,0x00,0xfc,0xc3,0x0c,0x00,0x00,0x00,0x00,0xfc,0x30,
 0x0c,0x00,0x00,0x00,0x00,0x3c,0x0c,0x0c,0x00,0x00,0x00,0x00,0x0c,0x03,0x0c,
 0x00,0x00,0x00,0x00,0x80,0x00,0x0c,0x00,0x00,0x00,0x00,0x00,0x00,0x00,0x00,
 0x00,0x00,0x00,0x00,0x00,0x00,0x00,0x00,0x00,0x00,0x00,0x00,0x00,0x00,0x00,
 0x00,0x00,0x00,0x00,0x00,0x00,0x00,0x00,0x86,0x00,0x00,0x04,0x00,0x00,0x00,
 0x8e,0x00,0x00,0x04,0x00,0x00,0x00,0x9a,0x00,0x40,0x02,0x00,0x00,0x00,0x92,
 0xf0,0x22,0x7e,0x00,0x00,0x00,0xb2,0x98,0x24,0x01,0x00,0x00,0x00,0xe2,0x78,
 0x18,0x01,0x00,0x00,0x00,0xc2,0x08,0x18,0x01,0x00,0x00,0x00,0xc2,0xc8,0x24,
 0x23,0x00,0x00,0x00,0x82,0x78,0x42,0x1e,0x00,0x00,0x00,0x00,0x00,0x00,0x00,
 0x00,0x00,0x00,0x00,0x00,0x00,0x00,0x00,0x00,0x00,0x00,0x00,0x00,0x00,0x00,
 0x00};
