#define pause_width 49
#define pause_height 28
static char pause_bits[] = {
 0x00,0x00,0x00,0x00,0x00,0x00,0x00,0x00,0x00,0x00,0x00,0x00,0x00,0x00,0x00,
 0x00,0x38,0x1c,0x00,0x00,0x00,0x00,0x00,0x38,0x1c,0x00,0x00,0x00,0x00,0x00,
 0x38,0x1c,0x00,0x00,0x00,0x00,0x00,0x38,0x1c,0x00,0x00,0x00,0x00,0x00,0x38,
 0x1c,0x00,0x00,0x00,0x00,0x00,0x38,0x1c,0x00,0x00,0x00,0x00,0x00,0x38,0x1c,
 0x00,0x00,0x00,0x00,0x00,0x38,0x1c,0x00,0x00,0x00,0x00,0x00,0x38,0x1c,0x00,
 0x00,0x00,0x00,0x00,0x38,0x1c,0x00,0x00,0x00,0x00,0x00,0x00,0x00,0x00,0x00,
 0x00,0xc0,0x03,0x00,0x00,0x00,0x00,0x00,0x20,0x04,0x00,0x00,0x00,0x00,0x00,
 0x20,0x04,0x00,0x00,0x00,0x00,0x00,0x20,0x04,0x00,0x00,0x00,0x00,0x00,0x20,
 0x04,0x00,0x00,0x00,0x00,0x00,0xe0,0x83,0x43,0x04,0x07,0x07,0x00,0x20,0x40,
 0x42,0x84,0x88,0x08,0x00,0x20,0x00,0x42,0x84,0x81,0x08,0x00,0x20,0xc0,0x43,
 0x04,0x86,0x07,0x00,0x20,0x40,0x42,0x04,0x88,0x00,0x00,0x20,0x40,0x42,0x46,
 0x88,0x08,0x00,0x20,0xc0,0x85,0x89,0x07,0x07,0x00,0x00,0x00,0x00,0x00,0x00,
 0x00,0x00,0x00,0x00,0x00,0x00,0x00,0x00,0x00,0x00,0x00,0x00,0x00,0x00,0x00,
 0x00};
