#define quit_width 49
#define quit_height 28
static char quit_bits[] = {
 0x00,0x00,0x00,0x00,0x00,0x00,0x00,0x00,0x00,0x00,0x00,0x00,0x00,0x00,0x00,
 0x00,0xfc,0x3f,0x00,0x00,0x00,0x00,0x00,0xfc,0x3f,0x00,0x00,0x00,0x00,0x00,
 0xfc,0x3f,0x00,0x00,0x00,0x00,0x00,0xfc,0x3f,0x00,0x00,0x00,0x00,0x00,0xfc,
 0x3f,0x00,0x00,0x00,0x00,0x00,0xfc,0x3f,0x00,0x00,0x00,0x00,0x00,0xfc,0x3f,
 0x00,0x00,0x00,0x00,0x00,0xfc,0x3f,0x00,0x00,0x00,0x00,0x00,0xfc,0x3f,0x00,
 0x00,0x00,0x00,0x00,0xfc,0x3f,0x00,0x00,0x00,0x00,0x00,0x00,0x00,0x00,0x00,
 0x00,0x00,0x00,0x00,0x00,0x00,0x00,0x00,0x00,0x00,0x00,0x00,0x00,0x00,0x00,
 0x00,0x00,0x00,0x00,0x20,0x00,0x00,0x00,0xf0,0x00,0x80,0x20,0x00,0x00,0x00,
 0x08,0x01,0x00,0x10,0x00,0x00,0x00,0x04,0x42,0x08,0xf8,0x01,0x00,0x00,0x04,
 0x42,0x88,0x08,0x00,0x00,0x00,0x64,0x42,0x88,0x08,0x00,0x00,0x00,0x44,0x21,
 0x88,0x08,0x01,0x00,0x00,0x88,0x21,0x84,0x18,0x01,0x00,0x00,0x78,0xc6,0x87,
 0xe0,0x00,0x00,0x00,0x00,0x00,0x00,0x00,0x00,0x00,0x00,0x00,0x00,0x00,0x00,
 0x00,0x00,0x00,0x00,0x00,0x00,0x00,0x00,0x00,0x00,0x00,0x00,0x00,0x00,0x00,
 0x00};
